<?xml version="1.0" encoding="utf-8"?>
<!-- Generator: Adobe Illustrator 22.0.1, SVG Export Plug-In . SVG Version: 6.00 Build 0)  -->
<svg version="1.1" id="Hebler_Logo" xmlns="http://www.w3.org/2000/svg" xmlns:xlink="http://www.w3.org/1999/xlink" x="0px"
	 y="0px" viewBox="0 0 720 720" style="enable-background:new 0 0 720 720;" xml:space="preserve">
<style type="text/css">
	.st0{display:none;}
	.st1{fill:#006847;}
	.st2{fill:none;stroke:#000000;stroke-miterlimit:10;}
	.st3{fill:none;stroke:#006847;stroke-miterlimit:10;}
	.st4{stroke:#CE1126;stroke-miterlimit:10;}
	.st5{fill:#CE1126;stroke:#000000;stroke-miterlimit:10;}
	.st6{fill:none;stroke:#0D343A;stroke-miterlimit:10;}
	.st7{fill:#24565B;}
	.st8{fill:none;stroke:#FFFFFF;stroke-miterlimit:10;}
	.st9{fill:#BF0A30;stroke:#BF0A30;stroke-miterlimit:10;}
	.st10{fill:#002868;stroke:#002868;stroke-miterlimit:10;}
	.st11{fill:#CE1126;stroke:#006847;stroke-miterlimit:10;}
</style>
<polyline class="st0" points="291,560 291,560 291,560 "/>
<g id="Logo">
	<g id="s">
		<g id="Top_1_">
			<g>
				<path class="st1" d="M374.9,349.7c-8.8-2.8-17-5.7-24.6-8.7c-7.6-3-14.1-6.9-19.5-11.7s-9.6-10.9-12.6-18.3
					c-3-7.4-4.5-17.1-4.5-29.1c0-20,5.7-35.3,17.1-45.9c11.4-10.6,27.3-15.9,47.7-15.9c15.2,0,35.4,3.2,60.6,9.6v-24.6
					c-15.6-3.6-27.7-6.1-36.3-7.5c-8.6-1.4-17.3-2.1-26.1-2.1c-27.6,0-49.5,7.9-65.7,23.7c-16.2,15.8-24.3,36.9-24.3,63.3
					c0,17.6,2.4,31.8,7.2,42.6s11,19.4,18.6,25.8c4.1,3.5,8.6,6.5,13.3,9h75.7C393.6,356.1,384.7,352.7,374.9,349.7z"/>
			</g>
			<g>
				<path class="st2" d="M374.9,349.7c-8.8-2.8-17-5.7-24.6-8.7c-7.6-3-14.1-6.9-19.5-11.7s-9.6-10.9-12.6-18.3
					c-3-7.4-4.5-17.1-4.5-29.1c0-20,5.7-35.3,17.1-45.9c11.4-10.6,27.3-15.9,47.7-15.9c15.2,0,35.4,3.2,60.6,9.6v-24.6
					c-15.6-3.6-27.7-6.1-36.3-7.5c-8.6-1.4-17.3-2.1-26.1-2.1c-27.6,0-49.5,7.9-65.7,23.7c-16.2,15.8-24.3,36.9-24.3,63.3
					c0,17.6,2.4,31.8,7.2,42.6s11,19.4,18.6,25.8c4.1,3.5,8.6,6.5,13.3,9h75.7C393.6,356.1,384.7,352.7,374.9,349.7z"/>
			</g>
		</g>
		<g id="Bottom_1_">
			<g>
				<path d="M432.2,382.4c-7.4-8.6-17.6-16.1-30.7-22.5h-75.7c4,2.1,8.1,3.9,12.5,5.4c9.6,3.2,19,6.2,28.2,9
					c20,5.6,34.3,13.9,42.9,24.9c8.6,11,12.9,25.9,12.9,44.7c0,20.4-5.6,36.5-16.8,48.3c-11.2,11.8-27.6,17.7-49.2,17.7
					c-10.4,0-21.9-1.1-34.5-3.3c-12.6-2.2-25.3-5.3-38.1-9.3v25.2c18.4,4.4,33.3,7.5,44.7,9.3s22.3,2.7,32.7,2.7
					c26,0,47.3-8.1,63.9-24.3c16.6-16.2,24.9-38.5,24.9-66.9C449.9,416.5,444,396.2,432.2,382.4z"/>
			</g>
			<g>
				<path class="st3" d="M432.2,382.4c-7.4-8.6-17.6-16.1-30.7-22.5h-75.7c4,2.1,8.1,3.9,12.5,5.4c9.6,3.2,19,6.2,28.2,9
					c20,5.6,34.3,13.9,42.9,24.9c8.6,11,12.9,25.9,12.9,44.7c0,20.4-5.6,36.5-16.8,48.3c-11.2,11.8-27.6,17.7-49.2,17.7
					c-10.4,0-21.9-1.1-34.5-3.3c-12.6-2.2-25.3-5.3-38.1-9.3v25.2c18.4,4.4,33.3,7.5,44.7,9.3s22.3,2.7,32.7,2.7
					c26,0,47.3-8.1,63.9-24.3c16.6-16.2,24.9-38.5,24.9-66.9C449.9,416.5,444,396.2,432.2,382.4z"/>
			</g>
		</g>
	</g>
	<g id="H">
		<g id="Top">
			<rect x="450" y="193" class="st4" width="20" height="167"/>
			<rect x="263" y="193" class="st4" width="20" height="167"/>
			<rect x="283" y="351" class="st4" width="167" height="9"/>
		</g>
		<g id="Bottom">
			<rect x="263" y="360" class="st5" width="20" height="174"/>
			<rect x="450" y="360" class="st5" width="20" height="174"/>
			<rect x="283" y="360" class="st5" width="167" height="9"/>
		</g>
	</g>
	<g id="Triangle">
		<g id="Bottom_2_">
			<g>
				<g>
					<path d="M364.2,631.6l1.9,2.5l0,37.9l-220-292.1l0-37.9L364.2,631.6"/>
				</g>
				<g>
					<path class="st6" d="M364.2,631.6l1.9,2.5l0,37.9l-220-292.1l0-37.9L364.2,631.6"/>
				</g>
			</g>
			<g>
				<g>
					<path d="M585.8,382.4L367.6,672l0-37.9l220-292.1l0,37.9L585.8,382.4"/>
				</g>
				<g>
					<path class="st6" d="M585.8,382.4L367.6,672l0-37.9l220-292.1l0,37.9L585.8,382.4"/>
				</g>
			</g>
		</g>
		<g id="Top_2_">
			<g>
				<g>
					<path class="st7" d="M364.2,88.1L146.1,377.7l0-37.9l220-292.1l0,37.9L364.2,88.1"/>
				</g>
				<g>
					<path class="st2" d="M364.2,88.1L146.1,377.7l0-37.9l220-292.1l0,37.9L364.2,88.1"/>
				</g>
			</g>
			<g>
				<g>
					<path class="st7" d="M585.8,337.3l1.9,2.5l0,37.9l-220-292.1l0-37.9L585.8,337.3"/>
				</g>
				<g>
					<path class="st2" d="M585.8,337.3l1.9,2.5l0,37.9l-220-292.1l0-37.9L585.8,337.3"/>
				</g>
			</g>
		</g>
	</g>
	<g id="Bottom_Flag">
		<g id="Flag_line">
			<line class="st3" x1="154.5" y1="380.5" x2="352.7" y2="644.1"/>
			<line class="st8" x1="159.5" y1="380.6" x2="357.7" y2="644.1"/>
			<line class="st4" x1="164.6" y1="380.6" x2="362.8" y2="644.2"/>
		</g>
		<g id="Flag_line_1_">
			<line class="st3" x1="369.2" y1="644.2" x2="567.4" y2="380.6"/>
			<line class="st8" x1="374.3" y1="644.1" x2="572.5" y2="380.6"/>
			<line class="st4" x1="379.3" y1="644.1" x2="577.5" y2="380.5"/>
		</g>
	</g>
	<g id="Top_Flag">
		<g id="Flag_line_3_">
			<line class="st9" x1="155.5" y1="338.2" x2="353.7" y2="74.6"/>
			<line class="st8" x1="160.5" y1="338.1" x2="358.7" y2="74.6"/>
			<line class="st10" x1="165.6" y1="338.1" x2="363.8" y2="74.5"/>
		</g>
		<g id="Flag_line_2_">
			<line class="st10" x1="370.2" y1="74.5" x2="568.4" y2="338.1"/>
			<line class="st8" x1="375.3" y1="74.6" x2="573.5" y2="338.1"/>
			<line class="st4" x1="380.3" y1="74.6" x2="578.5" y2="338.2"/>
		</g>
	</g>
	<circle id="Point" class="st11" cx="428.5" cy="332.5" r="9"/>
</g>
</svg>
